<?xml version="1.0" encoding="utf-8"?>
<!-- Generator: Adobe Illustrator 16.0.0, SVG Export Plug-In . SVG Version: 6.00 Build 0)  -->
<!DOCTYPE svg PUBLIC "-//W3C//DTD SVG 1.1//EN" "http://www.w3.org/Graphics/SVG/1.1/DTD/svg11.dtd">
<svg version="1.1" id="downstairs" xmlns="http://www.w3.org/2000/svg" xmlns:xlink="http://www.w3.org/1999/xlink" x="0px" y="0px"
     width="475px" height="225px" viewBox="0 0 475 225" enable-background="new 0 0 475 225" xml:space="preserve">
<line fill="none" stroke="#000000" stroke-miterlimit="10" x1="18.5" y1="12.385" x2="18.5" y2="212.385"/>
<line fill="none" stroke="#000000" stroke-miterlimit="10" x1="18.5" y1="212.385" x2="425.5" y2="212.385"/>
<line fill="none" stroke="#000000" stroke-miterlimit="10" x1="425.5" y1="212.385" x2="425.5" y2="12.385"/>
<line fill="none" stroke="#000000" stroke-miterlimit="10" x1="425.5" y1="12.385" x2="18.5" y2="12.385"/>
<line fill="none" stroke="#000000" stroke-miterlimit="10" x1="364" y1="98" x2="18.5" y2="98"/>
<line fill="none" stroke="#000000" stroke-miterlimit="10" x1="215.58" y1="137.006" x2="215.578" y2="98"/>
<line fill="none" stroke="#000000" stroke-miterlimit="10" x1="364" y1="97.5" x2="364" y2="174.506"/>
<line fill="none" stroke="#000000" stroke-miterlimit="10" x1="215.578" y1="53" x2="364" y2="53"/>
<line fill="none" stroke="#000000" stroke-miterlimit="10" x1="364" y1="53" x2="364" y2="12.385"/>
<line fill="none" stroke="#000000" stroke-miterlimit="10" x1="215.578" y1="53" x2="215.578" y2="12.385"/>
<rect x="18.5" y="40.885" fill="#DDDDDD" stroke="#000000" stroke-miterlimit="10" width="28.5" height="57.115"/>
<rect x="18.5" y="12.385" fill="#FFFFFF" stroke="#000000" stroke-miterlimit="10" width="28.5" height="28.5"/>
<rect x="47" y="12.385" fill="#DDDDDD" stroke="#000000" stroke-miterlimit="10" width="168.58" height="28.5"/>
<line fill="none" stroke="#000000" stroke-miterlimit="10" x1="290.55" y1="174.506" x2="364" y2="174.506"/>
<line fill="none" stroke="#000000" stroke-miterlimit="10" x1="290.58" y1="97.75" x2="290.58" y2="174.256"/>
<rect id="music-nook" x="219" y="101.5" fill="#FFFFFF" width="68.5" height="32"/>
<rect id="master-bedroom" x="22.5" y="101.5" fill="#FFFFFF" width="188" height="106"/>
<g id="master-bathroom" fill="#000000">
    <rect id="master-bathroom-main" x="49" y="43" width="165" height="53"/>
    <rect id="master-bathroom-closet" x="213" y="55" width="90" height="41"/>
    <rect id="master-bathroom-laundry" x="293" y="55" width="70" height="41"/>
</g>
<polygon id="closet" fill="#FFFFFF" points="421,17.5 421,207.5 295.5,207.5 295.5,179 368.5,179 368.5,17.5 "/>
<g id="gfx-stairs">
    <rect id="stairs" x="215.789" y="137.154" fill="#FFFFFF" stroke="#000000" stroke-miterlimit="10" width="75" height="75"/>
    <line fill="none" stroke="#000000" stroke-miterlimit="10" x1="240.787" y1="137.154" x2="290.787" y2="187.156"/>
    <line fill="none" stroke="#000000" stroke-miterlimit="10" x1="240.787" y1="187.154" x2="290.709" y2="137.461"/>
    <line fill="none" stroke="#000000" stroke-miterlimit="10" x1="265.771" y1="187.154" x2="265.771" y2="212.154"/>
    <line fill="none" stroke="#000000" stroke-miterlimit="10" x1="253.288" y1="187.156" x2="253.288" y2="212.154"/>
    <line fill="none" stroke="#000000" stroke-miterlimit="10" x1="240.787" y1="162.156" x2="215.787" y2="162.156"/>
    <line fill="none" stroke="#000000" stroke-miterlimit="10" x1="240.787" y1="174.654" x2="215.787" y2="174.654"/>
    <line fill="none" stroke="#000000" stroke-miterlimit="10" x1="240.787" y1="168.709" x2="215.787" y2="168.709"/>
    <line fill="none" stroke="#000000" stroke-miterlimit="10" x1="240.787" y1="181.385" x2="215.787" y2="181.385"/>
    <line fill="none" stroke="#000000" stroke-miterlimit="10" x1="240.787" y1="149.615" x2="215.787" y2="149.615"/>
    <line fill="none" stroke="#000000" stroke-miterlimit="10" x1="240.787" y1="155.889" x2="215.787" y2="155.889"/>
    <line fill="none" stroke="#000000" stroke-miterlimit="10" x1="240.787" y1="143.777" x2="215.787" y2="143.777"/>
    <line fill="none" stroke="#000000" stroke-miterlimit="10" x1="246.557" y1="187.154" x2="246.557" y2="212.154"/>
    <line fill="none" stroke="#000000" stroke-miterlimit="10" x1="259.232" y1="187.154" x2="259.232" y2="212.154"/>
    <line fill="none" stroke="#000000" stroke-miterlimit="10" x1="278.326" y1="187.154" x2="278.326" y2="212.154"/>
    <line fill="none" stroke="#000000" stroke-miterlimit="10" x1="284.164" y1="187.387" x2="284.164" y2="212.385"/>
    <line fill="none" stroke="#000000" stroke-miterlimit="10" x1="272.344" y1="187.154" x2="272.344" y2="212.154"/>
    <line fill="none" stroke="#000000" stroke-miterlimit="10" x1="290.789" y1="187.152" x2="215.789" y2="187.152"/>
    <line fill="none" stroke="#000000" stroke-miterlimit="10" x1="240.787" y1="137.154" x2="240.787" y2="212.154"/>
</g>
</svg>
