<?xml version="1.0" encoding="utf-8"?>
<!-- Generator: Adobe Illustrator 16.0.0, SVG Export Plug-In . SVG Version: 6.00 Build 0)  -->
<!DOCTYPE svg PUBLIC "-//W3C//DTD SVG 1.1//EN" "http://www.w3.org/Graphics/SVG/1.1/DTD/svg11.dtd">
<svg version="1.1" id="loft" xmlns="http://www.w3.org/2000/svg" xmlns:xlink="http://www.w3.org/1999/xlink" x="0px" y="0px"
	 width="475px" height="225px" viewBox="0 0 475 225" enable-background="new 0 0 475 225" xml:space="preserve">
<line fill="none" stroke="#000000" stroke-miterlimit="10" x1="218.5" y1="12.385" x2="218.5" y2="212.385"/>
<line fill="none" stroke="#000000" stroke-miterlimit="10" x1="218.5" y1="212.385" x2="392.333" y2="212.385"/>
<line fill="none" stroke="#000000" stroke-miterlimit="10" x1="392.333" y1="212.385" x2="392.333" y2="112.385"/>
<line fill="none" stroke="#000000" stroke-miterlimit="10" x1="392.333" y1="112.385" x2="456.5" y2="112.385"/>
<line fill="none" stroke="#000000" stroke-miterlimit="10" x1="456.5" y1="112.385" x2="456.5" y2="41.5"/>
<line fill="none" stroke="#000000" stroke-miterlimit="10" x1="392.333" y1="12.385" x2="218.5" y2="12.385"/>
<rect id="stairs" x="223.5" y="143.615" fill="#FFFFFF" width="63.771" height="63.771"/>
<line fill="none" stroke="#000000" stroke-miterlimit="10" x1="392.333" y1="12.385" x2="392.333" y2="41.5"/>
<line fill="none" stroke="#000000" stroke-miterlimit="10" x1="392.333" y1="41.5" x2="456.5" y2="41.5"/>
<polygon id="office" fill="#FFFFFF" points="390.33,15.33 390.33,210.17 297,210.17 297,149.85 281.04,134 221.33,134 221.33,15.33 
	"/>
<rect id="reading-nook" x="392.333" y="43.667" fill="#FFFFFF" width="62.001" height="66"/>
<g id="gfx-stairs">
	<polygon id="stairs" fill="#FFFFFF" stroke="#000000" stroke-miterlimit="10" points="293.636,187.885 293.636,212.885 
		218.636,212.885 218.636,137.885 281.146,137.885 293.605,150.346 293.605,187.885 	"/>
	<line fill="none" stroke="#000000" stroke-miterlimit="10" x1="243.634" y1="137.887" x2="293.634" y2="187.889"/>
	<line fill="none" stroke="#000000" stroke-miterlimit="10" x1="243.634" y1="187.887" x2="287.403" y2="144.117"/>
	<line fill="none" stroke="#000000" stroke-miterlimit="10" x1="268.618" y1="187.887" x2="268.618" y2="212.887"/>
	<line fill="none" stroke="#000000" stroke-miterlimit="10" x1="256.135" y1="187.889" x2="256.135" y2="212.887"/>
	<line fill="none" stroke="#000000" stroke-miterlimit="10" x1="243.634" y1="162.889" x2="218.634" y2="162.889"/>
	<line fill="none" stroke="#000000" stroke-miterlimit="10" x1="243.634" y1="175.387" x2="218.634" y2="175.387"/>
	<line fill="none" stroke="#000000" stroke-miterlimit="10" x1="243.634" y1="169.441" x2="218.634" y2="169.441"/>
	<line fill="none" stroke="#000000" stroke-miterlimit="10" x1="243.634" y1="182.117" x2="218.634" y2="182.117"/>
	<line fill="none" stroke="#000000" stroke-miterlimit="10" x1="243.634" y1="150.348" x2="218.634" y2="150.348"/>
	<line fill="none" stroke="#000000" stroke-miterlimit="10" x1="243.634" y1="156.621" x2="218.634" y2="156.621"/>
	<line fill="none" stroke="#000000" stroke-miterlimit="10" x1="243.634" y1="144.51" x2="218.634" y2="144.51"/>
	<line fill="none" stroke="#000000" stroke-miterlimit="10" x1="249.403" y1="187.887" x2="249.403" y2="212.887"/>
	<line fill="none" stroke="#000000" stroke-miterlimit="10" x1="262.079" y1="187.887" x2="262.079" y2="212.887"/>
	<line fill="none" stroke="#000000" stroke-miterlimit="10" x1="281.173" y1="187.887" x2="281.173" y2="212.887"/>
	<line fill="none" stroke="#000000" stroke-miterlimit="10" x1="287.011" y1="188.119" x2="287.011" y2="213.117"/>
	<line fill="none" stroke="#000000" stroke-miterlimit="10" x1="275.19" y1="187.887" x2="275.19" y2="212.887"/>
	<line fill="none" stroke="#000000" stroke-miterlimit="10" x1="293.636" y1="187.885" x2="218.636" y2="187.885"/>
	<line fill="none" stroke="#000000" stroke-miterlimit="10" x1="243.634" y1="137.887" x2="243.634" y2="212.887"/>
</g>
</svg>
