<?xml version="1.0" encoding="utf-8"?>
<!-- Generator: Adobe Illustrator 16.0.0, SVG Export Plug-In . SVG Version: 6.00 Build 0)  -->
<!DOCTYPE svg PUBLIC "-//W3C//DTD SVG 1.1//EN" "http://www.w3.org/Graphics/SVG/1.1/DTD/svg11.dtd">
<svg version="1.1" id="upstairs" xmlns="http://www.w3.org/2000/svg" xmlns:xlink="http://www.w3.org/1999/xlink" x="0px" y="0px"
	 width="475px" height="225px" viewBox="0 0 475 225" enable-background="new 0 0 475 225" xml:space="preserve">
<line fill="none" stroke="#000000" stroke-miterlimit="10" x1="18.5" y1="12.385" x2="18.5" y2="212.385"/>
<line fill="none" stroke="#000000" stroke-miterlimit="10" x1="18.5" y1="212.385" x2="425.5" y2="212.385"/>
<line fill="none" stroke="#000000" stroke-miterlimit="10" x1="425.5" y1="212.385" x2="425.5" y2="179.385"/>
<rect x="215.904" y="36.542" fill="#DDDDDD" stroke="#000000" stroke-miterlimit="10" width="15.5" height="80.844"/>
<rect x="300.943" y="37.771" fill="#DDDDDD" stroke="#000000" stroke-miterlimit="10" width="15" height="79.615"/>
<rect x="215.904" y="12.771" fill="#DDDDDD" stroke="#000000" stroke-miterlimit="10" width="100" height="25"/>
<line fill="none" stroke="#000000" stroke-miterlimit="10" x1="406.671" y1="137.385" x2="406.671" y2="91.501"/>
<g>
	<line fill="none" stroke="#000000" stroke-miterlimit="10" x1="375.841" y1="137.385" x2="375.841" y2="179.385"/>
	<line fill="none" stroke="#000000" stroke-miterlimit="10" x1="375.841" y1="179.385" x2="456.5" y2="179.385"/>
	<line fill="none" stroke="#000000" stroke-miterlimit="10" x1="456.5" y1="179.385" x2="456.5" y2="168.385"/>
	<line fill="none" stroke="#000000" stroke-miterlimit="10" x1="406.671" y1="137.385" x2="375.841" y2="137.385"/>
	<line fill="none" stroke="#000000" stroke-miterlimit="10" x1="456.5" y1="168.385" x2="406.671" y2="168.385"/>
	<line fill="none" stroke="#000000" stroke-miterlimit="10" x1="406.671" y1="137.385" x2="406.671" y2="168.385"/>
</g>
<line fill="none" stroke="#000000" stroke-miterlimit="10" x1="406.671" y1="91.501" x2="456.5" y2="91.5"/>
<line fill="none" stroke="#000000" stroke-miterlimit="10" x1="456.5" y1="112.385" x2="456.5" y2="137.385"/>
<line fill="none" stroke="#000000" stroke-miterlimit="10" x1="456.5" y1="168.385" x2="456.5" y2="137.385"/>
<line fill="none" stroke="#000000" stroke-miterlimit="10" x1="316.221" y1="79.026" x2="375.777" y2="79.026"/>
<line fill="none" stroke="#000000" stroke-miterlimit="10" x1="375.5" y1="116.5" x2="375.5" y2="45.674"/>
<line fill="none" stroke="#000000" stroke-miterlimit="10" x1="456.5" y1="112.385" x2="456.5" y2="12.385"/>
<line fill="none" stroke="#000000" stroke-miterlimit="10" x1="456.5" y1="12.385" x2="18.5" y2="12.385"/>
<line fill="none" stroke="#000000" stroke-miterlimit="10" x1="375.5" y1="116.5" x2="380.999" y2="116.5"/>
<line fill="none" stroke="#000000" stroke-miterlimit="10" x1="380.999" y1="116.5" x2="380.999" y2="91.5"/>
<line fill="none" stroke="#000000" stroke-miterlimit="10" x1="380.999" y1="91.5" x2="406.671" y2="91.5"/>
<line fill="none" stroke="#000000" stroke-miterlimit="10" x1="375.5" y1="45.674" x2="375.5" y2="12.635"/>
<rect id="upstairs-bathroom" x="409.25" y="93.25" fill="#FFFFFF" width="45.125" height="73.25"/>
<rect id="living-room" x="22.5" y="117.386" fill="#FFFFFF" width="189.5" height="91.614"/>
<rect id="dinning-room" x="23.5" y="17.5" fill="#FFFFFF" width="187.499" height="90"/>
<rect id="kitchen" x="234.667" y="40.667" fill="#FFFFFF" width="63.515" height="76.718"/>
<rect id="guest-room" x="378.25" y="14.75" fill="#FFFFFF" width="75" height="73.25"/>
<rect id="coat-rack" x="383.835" y="93.818" fill="#FFFFFF" width="20" height="41.25"/>
<g id="gfx-stairs">
	<polygon id="stairs" fill="#FFFFFF" stroke="#000000" stroke-miterlimit="10" points="290.58,187.006 290.58,212.006 
		215.58,212.006 215.58,137.006 278.09,137.006 290.55,149.467 290.55,187.006 	"/>
	<line fill="none" stroke="#000000" stroke-miterlimit="10" x1="240.578" y1="137.008" x2="290.578" y2="187.01"/>
	<line fill="none" stroke="#000000" stroke-miterlimit="10" x1="240.578" y1="187.008" x2="284.348" y2="143.238"/>
	<line fill="none" stroke="#000000" stroke-miterlimit="10" x1="265.562" y1="187.008" x2="265.562" y2="212.008"/>
	<line fill="none" stroke="#000000" stroke-miterlimit="10" x1="253.079" y1="187.01" x2="253.079" y2="212.008"/>
	<line fill="none" stroke="#000000" stroke-miterlimit="10" x1="240.578" y1="162.01" x2="215.578" y2="162.01"/>
	<line fill="none" stroke="#000000" stroke-miterlimit="10" x1="240.578" y1="174.508" x2="215.578" y2="174.508"/>
	<line fill="none" stroke="#000000" stroke-miterlimit="10" x1="240.578" y1="168.562" x2="215.578" y2="168.562"/>
	<line fill="none" stroke="#000000" stroke-miterlimit="10" x1="240.578" y1="181.238" x2="215.578" y2="181.238"/>
	<line fill="none" stroke="#000000" stroke-miterlimit="10" x1="240.578" y1="149.469" x2="215.578" y2="149.469"/>
	<line fill="none" stroke="#000000" stroke-miterlimit="10" x1="240.578" y1="155.742" x2="215.578" y2="155.742"/>
	<line fill="none" stroke="#000000" stroke-miterlimit="10" x1="240.578" y1="143.631" x2="215.578" y2="143.631"/>
	<line fill="none" stroke="#000000" stroke-miterlimit="10" x1="246.348" y1="187.008" x2="246.348" y2="212.008"/>
	<line fill="none" stroke="#000000" stroke-miterlimit="10" x1="259.023" y1="187.008" x2="259.023" y2="212.008"/>
	<line fill="none" stroke="#000000" stroke-miterlimit="10" x1="278.117" y1="187.008" x2="278.117" y2="212.008"/>
	<line fill="none" stroke="#000000" stroke-miterlimit="10" x1="283.955" y1="187.24" x2="283.955" y2="212.238"/>
	<line fill="none" stroke="#000000" stroke-miterlimit="10" x1="272.135" y1="187.008" x2="272.135" y2="212.008"/>
	<line fill="none" stroke="#000000" stroke-miterlimit="10" x1="290.58" y1="187.006" x2="215.58" y2="187.006"/>
	<line fill="none" stroke="#000000" stroke-miterlimit="10" x1="240.578" y1="137.008" x2="240.578" y2="212.008"/>
</g>
<g id="entryway">
	<rect id="foyer" x="293.75" y="117.385" fill="#FFFFFF" width="79.583" height="91.948"/>
	<rect id="hall" x="373.333" y="182.667" fill="#FFFFFF" width="49.182" height="26.666"/>
	<rect id="coat-closet" x="318.667" y="81.25" fill="#FFFFFF" width="54.666" height="36.136"/>
</g>
<rect id="server-closet" x="318.667" y="14.75" fill="#FFFFFF" width="54.666" height="62.214"/>
<rect x="427" y="181.5" fill="#FFFFFF" width="29.5" height="30.506"/>
</svg>
