<?xml version="1.0" encoding="UTF-8" standalone="no"?>
<!-- Created with Inkscape (http://www.inkscape.org/) -->

<svg
   xmlns:dc="http://purl.org/dc/elements/1.1/"
   xmlns:cc="http://creativecommons.org/ns#"
   xmlns:rdf="http://www.w3.org/1999/02/22-rdf-syntax-ns#"
   xmlns:svg="http://www.w3.org/2000/svg"
   xmlns="http://www.w3.org/2000/svg"
   xmlns:sodipodi="http://sodipodi.sourceforge.net/DTD/sodipodi-0.dtd"
   xmlns:inkscape="http://www.inkscape.org/namespaces/inkscape"
   id="svg2985"
   version="1.1"
   inkscape:version="0.48.4 r9939"
   width="275"
   height="159.45212"
   xml:space="preserve"
   sodipodi:docname="United_States_Postal_Service Logo.svg"><metadata
     id="metadata2991"><rdf:RDF><cc:Work
         rdf:about=""><dc:format>image/svg+xml</dc:format><dc:type
           rdf:resource="http://purl.org/dc/dcmitype/StillImage" /><dc:title /></cc:Work></rdf:RDF></metadata><defs
     id="defs2989"><clipPath
       clipPathUnits="userSpaceOnUse"
       id="clipPath3001"><path
         d="m 100.99,0 307.201,0 0,198.429 -307.201,0 0,-198.429 z"
         id="path3003"
         inkscape:connector-curvature="0" /></clipPath><clipPath
       clipPathUnits="userSpaceOnUse"
       id="clipPath3013"><path
         d="m 0,198.43 408.19,0 L 408.19,0 0,0 0,198.43 z"
         id="path3015"
         inkscape:connector-curvature="0" /></clipPath><clipPath
       clipPathUnits="userSpaceOnUse"
       id="clipPath3057"><path
         d="m 0,198.43 408.19,0 L 408.19,0 0,0 0,198.43 z"
         id="path3059"
         inkscape:connector-curvature="0" /></clipPath><linearGradient
       x1="0"
       y1="0"
       x2="1"
       y2="0"
       gradientUnits="userSpaceOnUse"
       gradientTransform="matrix(12.65918,0,0,-12.65918,71.307129,19.357422)"
       spreadMethod="pad"
       id="linearGradient5613"><stop
         style="stop-opacity:1;stop-color:#27963c"
         offset="0"
         id="stop5615" /><stop
         style="stop-opacity:1;stop-color:#80cc28"
         offset="1"
         id="stop5617" /></linearGradient><clipPath
       clipPathUnits="userSpaceOnUse"
       id="clipPath5625"><path
         d="m 0,198.43 408.19,0 L 408.19,0 0,0 0,198.43 z"
         id="path5627"
         inkscape:connector-curvature="0" /></clipPath><clipPath
       clipPathUnits="userSpaceOnUse"
       id="clipPath5673"><path
         d="m 0,198.43 408.19,0 L 408.19,0 0,0 0,198.43 z"
         id="path5675"
         inkscape:connector-curvature="0" /></clipPath><clipPath
       clipPathUnits="userSpaceOnUse"
       id="clipPath5689"><path
         d="m 0,198.43 408.19,0 L 408.19,0 0,0 0,198.43 z"
         id="path5691"
         inkscape:connector-curvature="0" /></clipPath></defs><sodipodi:namedview
     pagecolor="#ffffff"
     bordercolor="#666666"
     borderopacity="1"
     objecttolerance="10"
     gridtolerance="10"
     guidetolerance="10"
     inkscape:pageopacity="0"
     inkscape:pageshadow="2"
     inkscape:window-width="1024"
     inkscape:window-height="576"
     id="namedview2987"
     showgrid="false"
     fit-margin-left="0.5"
     fit-margin-bottom="0.5"
     fit-margin-top="0.5"
     fit-margin-right="0.5"
     inkscape:zoom="0.53472917"
     inkscape:cx="715.33278"
     inkscape:cy="-64.858438"
     inkscape:window-x="451"
     inkscape:window-y="-19"
     inkscape:window-maximized="0"
     inkscape:current-layer="g2993" /><g
     id="g2993"
     inkscape:groupmode="layer"
     inkscape:label="Blue-Inc-Q4-flexecash-artwork-2014"
     transform="matrix(1.25,0,0,-1.25,-350.13717,565.42982)"><g
       transform="matrix(6.5919542,0,0,6.5919542,307.14255,451.3374)"
       id="g9832"
       style="fill:#284e80"><path
         inkscape:connector-curvature="0"
         id="path9834"
         style="fill:#284e80;fill-opacity:1;fill-rule:nonzero;stroke:none"
         d="m 0,0 c 0,0 15.963,-3.278 16.279,-3.334 3.668,-0.647 3.553,-1.354 3.553,-1.354 2.57,0.013 2.886,-0.092 3.336,-0.466 1.35,-1.128 -0.845,-4.454 -0.845,-4.454 -0.314,-0.232 -24.06,-9.403 -24.06,-9.403 l 24.844,0 L 27.168,0.092 0.016,0.09 0,0 z" /></g><g
       transform="matrix(6.5919542,0,0,6.5919542,429.6527,410.55747)"
       id="g9836"
       style="fill:#284e80"><path
         inkscape:connector-curvature="0"
         id="path9838"
         style="fill:#284e80;fill-opacity:1;fill-rule:nonzero;stroke:none"
         d="m 0,0 c -0.36,-0.177 -1.301,-0.276 -1.741,-0.313 -0.424,-0.035 -0.539,-0.078 -0.546,-0.242 -0.005,-0.145 0.063,-0.228 0.67,-0.228 1.395,0 3.906,0.526 4.662,0.286 0.4,-0.128 0.08,-0.84 -0.248,-1.776 C 2.671,-2.634 2.919,-2.609 3.064,-2.451 3.209,-2.292 3.86,-1.099 3.93,-0.492 4.031,0.37 3.291,0.5 2.27,0.5 l -1.622,0 C 0.564,0.5 0.492,0.443 0.393,0.309 0.304,0.194 0.232,0.117 0,0" /></g><g
       transform="matrix(6.5919542,0,0,6.5919542,301.06345,422.81586)"
       id="g9840"
       style="fill:#284e80"><path
         inkscape:connector-curvature="0"
         id="path9842"
         style="fill:#284e80;fill-opacity:1;fill-rule:nonzero;stroke:none"
         d="m 0,0 -3.118,-14.688 c 0,0 9.552,4.687 10.72,5.287 2.395,1.23 5.705,2.856 8.764,3.898 0.583,0.197 3.08,0.967 4.534,1.226 0.564,0.101 0.803,0.196 0.796,0.303 -0.022,0.3 -0.588,0.319 -1.548,0.273 C 17.22,-3.839 11.607,-6.073 9.992,-6.925 l -1.823,5.651 11.652,0 C 20.343,0.191 12.925,-0.013 12.693,0 L 0.002,0 0,0 z" /></g><g
       transform="matrix(6.5919542,0,0,6.5919542,531.19384,403.8806)"
       id="g9844"
       style="fill:#284e80;fill-opacity:1">
       </g>
     </g>
   </svg>