<?xml version="1.0" encoding="UTF-8" standalone="no"?>
<!-- Created with Inkscape (http://www.inkscape.org/) -->

<svg
   xmlns:dc="http://purl.org/dc/elements/1.1/"
   xmlns:cc="http://creativecommons.org/ns#"
   xmlns:rdf="http://www.w3.org/1999/02/22-rdf-syntax-ns#"
   xmlns:svg="http://www.w3.org/2000/svg"
   xmlns="http://www.w3.org/2000/svg"
   xmlns:sodipodi="http://sodipodi.sourceforge.net/DTD/sodipodi-0.dtd"
   xmlns:inkscape="http://www.inkscape.org/namespaces/inkscape"
   version="1.1"
   width="354.64053"
   height="98.250351"
   id="svg3010"
   inkscape:version="0.48.4 r9939"
   sodipodi:docname="FedEx logo.svg">
  <sodipodi:namedview
     pagecolor="#ffffff"
     bordercolor="#666666"
     borderopacity="1"
     objecttolerance="10"
     gridtolerance="10"
     guidetolerance="10"
     inkscape:pageopacity="0"
     inkscape:pageshadow="2"
     inkscape:window-width="1920"
     inkscape:window-height="1018"
     id="namedview3001"
     showgrid="false"
     inkscape:zoom="3.417545"
     inkscape:cx="177.32027"
     inkscape:cy="49.125175"
     inkscape:window-x="-8"
     inkscape:window-y="-8"
     inkscape:window-maximized="1"
     inkscape:current-layer="svg3010" />
  <defs
     id="defs3012" />
  <metadata
     id="metadata3015">
    <rdf:RDF>
      <cc:Work
         rdf:about="">
        <dc:format>image/svg+xml</dc:format>
        <dc:type
           rdf:resource="http://purl.org/dc/dcmitype/StillImage" />
        <dc:title></dc:title>
      </cc:Work>
    </rdf:RDF>
  </metadata>
  <path
     d="m 292.35445,94.80827 -13.14109,-14.73851 -13.02082,14.73851 -27.39227,0 26.77975,-30.08908 -26.77975,-30.09487 28.25335,0 13.26491,14.61645 12.77226,-14.61645 27.27018,0 -26.65277,29.97105 27.01852,30.2129 -28.37227,0"
     id="path16"
     style="fill:#adabab;fill-opacity:1;fill-rule:nonzero;stroke:none" />
  <path
     d="m 186.1749,94.80827 0,-94.80827 52.62537,0 0,21.13356 -30.33497,0 0,13.49076 30.33497,0 0,20.3326 -30.33497,0 0,18.66258 30.33497,0 0,21.18877 -52.62537,0"
     id="path18"
     style="fill:#adabab;fill-opacity:1;fill-rule:nonzero;stroke:none" />
  <path
     d="m 163.9767,0 0,38.80052 -0.24364,0 c -4.91565,-5.64844 -11.05634,-7.61292 -18.18058,-7.61292 -14.59374,0 -25.5877,9.92219 -29.44539,23.03878 -4.4025,-14.45164 -15.75284,-23.3083 -32.58144,-23.3083 -13.66807,0 -24.45845,6.13357 -30.09264,16.13058 l 0,-12.42434 -28.25023,0 0,-13.49076 30.83078,0 L 56.01356,0 0,0 l 0,94.80827 25.18278,0 0,-39.85135 25.10037,0 c -0.74793,2.92712 -1.1484,6.06273 -1.1484,9.37071 0,19.77578 15.10914,33.65278 34.3909,33.65278 16.21253,0 26.90002,-7.61249 32.55026,-21.48992 l -21.58078,0 c -2.91957,4.17129 -5.13308,5.40655 -10.9695,5.40655 -6.76699,0 -12.60341,-5.90235 -12.60341,-12.90275 l 43.94423,0 c 1.90525,15.70961 14.14337,29.25606 30.93502,29.25606 7.24231,0 13.877,-3.5619 17.93157,-9.57919 l 0.24365,0 0,6.13711 22.19819,0 0,-94.80827 -22.19819,0 z M 71.62381,55.23891 c 1.40053,-6.0204 6.07075,-9.9565 11.90182,-9.9565 6.41908,0 10.85141,3.81403 12.01719,9.9565 0.49223,0 -23.91901,0 -23.91901,0 z m 78.8795,25.13555 c -8.18178,0 -13.26805,-7.62494 -13.26805,-15.58576 0,-8.50921 4.42475,-16.69276 13.26805,-16.69276 9.17203,0 12.82437,8.18355 12.82437,16.69276 0,8.06861 -3.87195,15.58576 -12.82437,15.58576"
     id="path20"
     style="fill:#412c91;fill-opacity:1;fill-rule:nonzero;stroke:none" />
</svg>
